<?xml version="1.0" encoding="UTF-8" standalone="no"?>
<!-- Created with Inkscape (http://www.inkscape.org/) -->

<svg
   width="32.373573mm"
   height="23.26968mm"
   viewBox="0 0 32.373573 23.26968"
   version="1.1"
   id="svg1"
   xml:space="preserve"
   inkscape:version="1.3.2 (091e20e, 2023-11-25, custom)"
   sodipodi:docname="PF.svg"
   xmlns:inkscape="http://www.inkscape.org/namespaces/inkscape"
   xmlns:sodipodi="http://sodipodi.sourceforge.net/DTD/sodipodi-0.dtd"
   xmlns="http://www.w3.org/2000/svg"
   xmlns:svg="http://www.w3.org/2000/svg"><sodipodi:namedview
     id="namedview1"
     pagecolor="#ffffff"
     bordercolor="#000000"
     borderopacity="0.25"
     inkscape:showpageshadow="2"
     inkscape:pageopacity="0.0"
     inkscape:pagecheckerboard="0"
     inkscape:deskcolor="#d1d1d1"
     inkscape:document-units="mm"
     inkscape:zoom="0.72426347"
     inkscape:cx="-143.59415"
     inkscape:cy="-200.89374"
     inkscape:window-width="1920"
     inkscape:window-height="1009"
     inkscape:window-x="-8"
     inkscape:window-y="-8"
     inkscape:window-maximized="1"
     inkscape:current-layer="layer1" /><defs
     id="defs1" /><g
     inkscape:label="Layer 1"
     inkscape:groupmode="layer"
     id="layer1"
     transform="translate(-55.355194,-107.74567)"><path
       style="fill:#e6e6e6"
       d="m 65.883033,129.45269 c -1.017909,-1.21505 -1.283801,-2.10649 -1.141251,-3.50454 0.15356,-1.50602 0.46627,-1.88276 1.67959,-2.0235 0.81998,-0.0951 1.546513,0.18114 1.837763,0.55809 0.29124,0.37695 0.716487,1.22772 0.721747,1.94639 0.09633,0.81001 0.34686,1.5834 0.7591,1.9216 0.41224,0.33821 1.5206,0.61492 2.46303,0.61492 1.0626,0 2.08284,-0.43262 2.68582,-1.13887 0.53479,-0.62638 0.97234,-1.50468 0.97234,-1.95177 0,-0.44709 -0.0317,-1.28511 -0.461121,-1.75063 -0.45661,-0.495 -3.165389,-1.10054 -6.074169,-1.58716 -2.73556,-0.45766 -5.74005,-1.15719 -6.67665,-1.55454 -0.93659,-0.39734 -2.13896,-1.23319 -2.67193,-1.85745 -0.53298,-0.62426 -0.74523,-1.31864 -0.47168,-1.54306 0.27355,-0.22442 1.74659,-0.0801 3.27342,0.3208 1.52682,0.40085 4.85651,1.22648 7.3993,1.83472 3.01585,0.72139 5.24178,1.61332 6.40227,2.56537 1.19694,0.98196 1.779,1.98368 1.779,3.06163 0,0.88118 -0.42452,2.27563 -0.94338,3.09879 -0.51886,0.82315 -1.48415,1.73407 -2.14508,2.02426 -0.66093,0.29019 -2.60056,0.52761 -4.31028,0.52761 -2.71772,0 -3.784369,-0.0187 -5.077839,-1.56266 z m 12.603019,-6.86934 c -0.3856,-0.6943 -1.78322,-1.71527 -3.10582,-2.26883 -1.32261,-0.55355 -4.13107,-1.37345 -6.24103,-1.822 -2.10996,-0.44855 -5.0465,-1.24112 -6.52564,-1.76128 -1.47915,-0.52016 -3.58007,-1.56062 -4.66873,-2.31214 -1.08865,-0.75151 -2.16732,-2.06842 -2.39704,-2.92646 -0.22971,-0.85804 -0.25803,-1.69103 -0.0629,-1.8511 0.19511,-0.16006 1.27589,0.28166 2.40173,0.98161 1.12584,0.69996 2.71632,1.56351 3.5344,1.919 l 1.48741,0.64636 -1.55119,-1.71943 c -0.85316,-0.94569 -1.71394,-2.10043 -1.91284,-2.56609 -0.1989,-0.46566 -0.20437,-0.97566 -0.0122,-1.13335 0.19221,-0.15769 1.50795,0.47947 2.92387,1.4159 1.41592,0.93644 4.90916,2.68953 7.76275,3.89577 2.95077,1.24731 5.83165,2.88508 6.67998,3.79754 0.82039,0.8824 1.79781,2.72526 2.17204,4.09523 0.37423,1.36998 0.57599,2.57654 0.44836,2.68125 -0.12764,0.10471 -0.54756,-0.37768 -0.93316,-1.07198 z m 1.74739,-2.05472 c 0.003,-0.0222 -0.170973,-2.77179 0.172557,-2.77179 0.34354,0 1.578969,0.42283 1.578969,-0.26513 0,-0.68795 0.07818,-2.3877 0.396989,-2.54934 0.3188,-0.16164 0.472905,0.41245 0.677325,0.9408 0.20442,0.52839 1.303286,1.37064 2.497746,2.26235 1.19446,0.89171 2.17174,1.8463 2.17174,2.1213 0,0.275 -1.519178,-0.0166 -2.507718,-0.0166 -0.98854,0 -1.769271,0.73812 -2.212501,1.17625 -0.44323,0.43814 -1.001231,1.15973 -1.630671,1.43609 -1.04544,0.45901 -1.14444,0.25713 -1.14444,-2.3339 z"
       id="path1"
       sodipodi:nodetypes="sssscssssssssscsssssssssssssssscsscssssssscssssssssssc" /></g></svg>
